PathFileType	4	(X/Y/Z)	W18_1_OpenSim.trc																																																																																																																						
DataRate	CameraRate	NumFrames	NumMarkers	Units	OrigDataRate	OrigDataStartFrame	OrigNumFrames																																																																																																																		
100	100	10	40	mm	100	1	3000																																																																																																																		
Frame#	Time	R.ASIS			R.PSIS			S2			L.PSIS			L.ASIS			R.TH1			R.TH2			R.TH3			R.MKnee			R.Knee			R.SH1			R.SH2			R.SH3			R.SH4			R.Ankle			R.MAnkle			R.Heel			R.MT5			R.MT1			L.TH1			L.TH2			L.TH3			L.TH4			L.MKnee			L.Knee			L.SH1			L.SH2			L.SH3			L.Ankle			L.MAnkle			L.Heel			L.MT5			L.MT1			R.Acr			L.Acr			C7			T10			Clav			Sternum			R.Back		
		X1	Y1	Z1	X2	Y2	Z2	X3	Y3	Z3	X4	Y4	Z4	X5	Y5	Z5	X6	Y6	Z6	X7	Y7	Z7	X8	Y8	Z8	X9	Y9	Z9	X10	Y10	Z10	X11	Y11	Z11	X12	Y12	Z12	X13	Y13	Z13	X14	Y14	Z14	X15	Y15	Z15	X16	Y16	Z16	X17	Y17	Z17	X18	Y18	Z18	X19	Y19	Z19	X20	Y20	Z20	X21	Y21	Z21	X22	Y22	Z22	X23	Y23	Z23	X24	Y24	Z24	X25	Y25	Z25	X26	Y26	Z26	X27	Y27	Z27	X28	Y28	Z28	X29	Y29	Z29	X30	Y30	Z30	X31	Y31	Z31	X32	Y32	Z32	X33	Y33	Z33	X34	Y34	Z34	X35	Y35	Z35	X36	Y36	Z36	X37	Y37	Z37	X38	Y38	Z38	X39	Y39	Z39	X40	Y40	Z40
1	0	1058.6151	1069.7242	-376.106	859.8334	1071.7994	-462.008	847.8043	1065.5591	-506.4718	849.1258	1070.3209	-556.7455	1020.9789	1065.7769	-670.0565	1032.4683	735.4251	-363.4656	951.6379	734.0113	-347.921	951.9893	624.8247	-365.6086	963.5557	506.253	-500.3123	970.1064	505.6914	-383.5162	953.3652	339.3361	-386.6815	936.1574	230.3581	-409.4302	873.4131	349.2751	-370.0513	861.2502	237.1106	-384.1562	849.0858	80.1476	-403.6204	887.3193	95.8166	-497.4115	788.202	42.5254	-462.2353	960.2718	38.1265	-374.4958	1009.8498	39.4039	-462.9402	1103.2769	810.4202	-700.0412	1145.1811	710.3183	-703.399	1027.8707	776.1468	-706.882	1072.9669	675.9385	-703.4975	1194.2189	551.0594	-591.5182	1169.7869	559.8321	-703.4747	1137.9608	427.752	-717.9653	1062.0651	457.3568	-707.3964	1024.7722	354.3304	-700.3707	1001.5817	145.9819	-706.7755	1044.8588	146.9577	-613.771	934.7806	130.4438	-643.5679	1085.5497	63.1716	-731.0743	1137.3459	66.0066	-636.3854	1023.3511	1468.8993	-360.7565	962.0521	1456.5859	-678.8143	946.9866	1507.5566	-513.6726	894.5941	1180.0243	-504.8618	1071.6146	1402.101	-532.3085	1092.6708	1261.7529	-527.9188	871.9988	1412.4911	-416.9955
2	0.01	1057.4149	1067.5278	-376.1762	858.732	1070.2501	-461.9051	846.674	1064.0127	-506.3302	847.8216	1068.7894	-556.5993	1019.5712	1064.0062	-670.0363	1024.5081	733.4048	-363.5361	943.9291	733.8367	-347.1898	941.4786	624.8791	-365.3887	949.8588	505.8809	-499.8982	956.3385	505.3312	-383.1526	937.7524	339.1044	-386.3626	919.8438	230.2434	-409.18	857.7983	349.7846	-369.8949	844.7387	237.7562	-384.4159	831.4645	80.4906	-404.0207	869.8743	95.9746	-497.7488	770.5825	43.1261	-462.5937	942.4405	37.9831	-374.4495	991.9795	39.1897	-462.8018	1102.5035	809.7944	-699.5954	1144.7664	709.7648	-702.4971	1027.3799	774.9943	-706.7484	1072.7638	675.0056	-702.8003	1194.8147	550.8982	-590.6898	1170.7515	559.3179	-702.2687	1146.5581	426.1191	-718.4592	1069.5372	450.2509	-707.3593	1039.9397	345.4464	-701.3055	1032.7299	136.7844	-710.0491	1075.9354	139.9188	-617.0699	968.3277	115.2046	-646.7089	1122.302	61.7479	-735.3548	1173.8038	67.4458	-640.8303	1023.3005	1467.4369	-361.9257	959.6988	1453.7939	-679.4022	945.8247	1505.4678	-514.3395	893.472	1178.1133	-504.5744	1069.6981	1399.6659	-533.8733	1091.5541	1259.5158	-528.6154	871.5028	1410.7948	-416.5678
3	0.02	1056.2183	1065.2213	-376.2749	857.6777	1068.63	-461.8615	845.6011	1062.4027	-506.2519	846.6043	1067.1881	-556.5182	1018.2451	1062.0641	-670.039	1016.612	731.342	-363.5785	936.2744	733.6062	-346.5064	931.0519	624.8916	-365.1765	936.3019	505.4869	-499.4914	942.6948	504.9392	-382.7929	922.2374	338.8554	-386.0313	903.5701	230.1283	-408.9294	842.2816	350.3088	-369.7456	828.2783	238.4251	-384.6608	813.8217	80.8756	-404.3939	852.4278	96.1549	-498.0738	752.9462	43.7774	-462.937	924.5971	37.8456	-374.3993	974.0994	38.9815	-462.6675	1101.5802	808.8118	-699.1387	1144.1357	708.8477	-701.5648	1026.6897	773.5643	-706.5491	1072.304	673.7647	-702.0335	1195.1177	550.3676	-589.8415	1171.4307	558.4907	-701.0734	1154.9957	424.4862	-718.9748	1076.9253	443.0422	-707.4067	1055.0514	336.6493	-702.3235	1063.8995	128.0518	-713.3214	1106.9055	133.3371	-620.3348	1001.9588	100.5151	-649.9572	1158.8566	60.9505	-739.5547	1209.9393	69.4807	-645.1495	1023.2559	1465.8634	-363.1249	957.3705	1450.9026	-680.0159	944.6852	1503.2715	-515.033	892.3882	1176.0897	-504.3388	1067.9105	1397.1421	-535.4098	1090.4476	1257.1451	-529.3277	871.0181	1408.9739	-416.199
4	0.03	1055.0295	1062.7153	-376.421	856.7004	1066.8794	-461.9327	844.6307	1060.6722	-506.2973	845.5452	1065.4529	-556.5632	1017.0765	1059.8104	-670.0815	1008.845	729.1988	-363.5741	928.7316	733.27	-345.9126	920.8038	624.8192	-364.9784	923.0266	505.0477	-499.1009	929.301	504.4861	-382.4448	906.9105	338.5723	-385.6857	887.3894	230.0056	-408.6796	826.9558	350.8623	-369.6125	811.9199	239.1394	-384.8861	796.1528	81.3385	-404.7196	834.9818	96.3827	-498.3758	735.279	44.5276	-463.2522	906.7352	37.7183	-374.3412	956.2022	38.7845	-462.538	1100.4005	807.1827	-698.6683	1143.1168	707.2561	-700.5882	1025.6456	771.6271	-706.2454	1071.3839	671.9562	-701.161	1194.8748	549.1555	-588.9556	1171.6011	557.0944	-699.9006	1163.1243	422.8394	-719.5123	1084.1543	435.6717	-707.6118	1070.0331	328.0449	-703.4919	1095.0469	120.1986	-716.5668	1137.606	127.6227	-623.5182	1035.6787	86.8713	-653.3744	1194.9747	61.3117	-743.5795	1245.3973	72.6229	-649.2067	1023.2273	1464.0885	-364.3793	955.0911	1447.8359	-680.6796	943.5886	1500.8828	-515.7777	891.3741	1173.8627	-504.1993	1066.3389	1394.4536	-536.9081	1089.3742	1254.5389	-530.0699	870.5574	1406.9299	-415.9383
5	0.04	1053.8456	1059.9512	-376.6196	855.8024	1064.954	-462.1686	843.7894	1058.7734	-506.5204	844.6938	1063.5289	-556.7877	1016.1299	1057.1577	-670.1713	1001.2732	726.948	-363.5182	921.3654	732.7881	-345.4402	910.8406	624.6203	-364.803	910.1731	504.5411	-498.7393	916.2848	503.9459	-382.1222	891.8569	338.24	-385.3371	871.3668	229.8621	-408.4344	811.9076	351.4585	-369.5075	795.72	239.9178	-385.0956	778.4741	81.9073	-404.9852	817.5435	96.6857	-498.6467	717.5738	45.422	-463.5296	888.8547	37.6036	-374.2738	938.2857	38.6051	-462.4126	1098.9231	804.7239	-698.1949	1141.6123	704.7732	-699.5746	1024.17	769.0334	-705.8459	1069.8916	669.4046	-700.2021	1193.9032	547.0495	-588.0187	1171.1421	554.9656	-698.7629	1170.8097	421.1525	-720.0475	1091.1582	428.1513	-708.0246	1084.7765	319.7623	-704.844	1126.0067	113.5491	-719.7224	1167.7776	123.099	-626.5556	1069.3486	74.6753	-656.9459	1230.3401	63.2014	-747.3157	1279.7707	77.2312	-652.859	1023.2321	1462.0544	-365.7082	952.8843	1444.5544	-681.4134	942.5519	1498.2523	-516.5974	890.45	1171.3758	-504.1875	1065.0198	1391.5505	-538.3782	1088.3656	1251.6415	-530.8545	870.1359	1404.6078	-415.8206
6	0.05	1052.6486	1056.9009	-376.8617	854.9649	1062.823	-462.6133	843.0843	1056.6686	-506.9676	844.0779	1061.3719	-557.2373	1015.4518	1054.0758	-670.3076	993.9656	724.5761	-363.4199	914.2483	732.1335	-345.1089	901.2718	624.2604	-364.6648	897.8727	503.9479	-498.4246	903.772	503.2973	-381.8458	877.1619	337.848	-385.0049	855.564	229.6877	-408.2086	797.2227	352.1081	-369.4453	779.7454	240.7746	-385.2957	760.8126	82.607	-405.186	800.126	97.0943	-498.8805	699.8325	46.5044	-463.763	870.9593	37.504	-374.1981	920.3541	38.4509	-462.2939	1097.1741	801.3691	-697.7369	1139.6166	701.3018	-698.5461	1022.2798	765.7295	-705.4147	1067.8234	666.0373	-699.2368	1192.11	543.9579	-587.0237	1170.0474	552.0453	-697.6707	1177.9335	419.4052	-720.5474	1097.8682	420.5656	-708.6568	1099.1268	311.9395	-706.3621	1156.4529	108.3113	-722.6953	1197.0512	119.9704	-629.3658	1102.6542	64.207	-660.5726	1264.5391	66.7857	-750.6356	1312.5938	83.4661	-655.97	1023.293	1459.74	-367.1283	950.7737	1441.0555	-682.2333	941.5895	1495.3682	-517.514	889.6249	1168.6119	-504.3227	1063.9525	1388.4154	-539.8402	1087.454	1248.4431	-531.692	869.7721	1402.001	-415.8648
7	0.06	1051.4131	1053.5666	-377.1268	854.1626	1060.4647	-463.3052	842.5061	1054.33	-507.6772	843.7037	1058.9496	-557.9488	1015.0688	1050.5883	-670.4857	986.9924	722.0825	-363.2983	907.4617	731.2905	-344.9285	892.2012	623.7149	-364.5841	886.2441	503.2537	-498.1809	891.881	502.5249	-381.6382	862.9097	337.3902	-384.7097	840.0283	229.4844	-408.0308	782.9889	352.8199	-369.442	764.0732	241.7225	-385.4915	743.1964	83.4643	-405.3265	782.7481	97.643	-499.0725	682.0679	47.8182	-463.9477	853.0565	37.4234	-374.1162	902.4155	38.3291	-462.1887	1095.2478	797.1631	-697.3032	1137.2228	696.8745	-697.5312	1020.0922	761.7572	-705.0618	1065.2855	661.8913	-698.3906	1189.5027	539.9151	-585.971	1168.4117	548.3775	-696.6301	1184.3872	417.5932	-720.9838	1104.1962	413.0501	-709.4686	1112.8779	304.6973	-707.9645	1185.8962	104.558	-725.3755	1224.9606	118.2987	-631.8487	1135.1052	55.6072	-664.0806	1297.061	72.0024	-753.4066	1343.3484	91.2632	-658.4216	1023.4379	1457.157	-368.653	948.7839	1437.3671	-683.1515	940.714	1492.2506	-518.5435	888.9006	1165.5884	-504.6153	1063.1149	1385.0638	-541.3171	1086.6616	1244.9741	-532.59	869.4864	1399.1461	-416.0761
8	0.07	1050.1194	1049.9791	-377.3882	853.3795	1057.8671	-464.2748	842.036	1051.744	-508.6789	843.5587	1056.2463	-558.9506	1014.9864	1046.7613	-670.7041	980.4241	719.4762	-363.1796	901.0872	730.2521	-344.9051	883.7211	622.9711	-364.5861	875.3937	502.4467	-498.0364	880.7175	501.6214	-381.5203	849.1788	336.8661	-384.47	824.7947	229.2711	-407.9243	769.2957	353.6043	-369.5131	748.7821	242.7793	-385.6882	725.6542	84.5118	-405.4172	765.4347	98.3712	-499.2176	664.3022	49.412	-464.0785	835.1561	37.3657	-374.0279	884.479	38.2409	-462.1038	1093.3053	792.2518	-696.8873	1134.6183	691.6508	-696.5577	1017.8146	757.246	-704.9174	1062.485	657.1078	-697.7994	1186.1923	535.0726	-584.8683	1166.4028	544.0966	-695.6419	1190.0663	415.7194	-721.3353	1110.0242	405.7586	-710.3664	1125.7771	298.1144	-709.5078	1213.7258	102.213	-727.633	1250.9734	117.9899	-633.8876	1166.0573	48.8707	-667.243	1327.3196	78.5541	-755.5037	1371.4928	100.322	-660.1245	1023.6946	1454.3444	-370.2923	946.9383	1433.5367	-684.1777	939.9371	1488.9429	-519.6905	888.2759	1162.3501	-505.0715	1062.4736	1381.5385	-542.8305	1085.9982	1241.295	-533.5537	869.298	1396.1115	-416.4501
9	0.08	1048.7626	1046.1941	-377.6222	852.6174	1055.0315	-465.5412	841.6552	1048.9155	-509.9899	843.6191	1053.2721	-560.2615	1015.1938	1042.693	-670.9702	974.3277	716.7775	-363.0962	895.1927	729.0216	-345.0475	875.9114	622.0287	-364.6986	865.4203	501.5142	-498.018	870.3743	500.5861	-381.5092	836.0367	336.2824	-384.3039	809.8951	229.0814	-407.8893	756.2301	354.477	-369.6689	733.9413	243.9749	-385.8936	708.22	85.7887	-405.4672	748.2201	99.3241	-499.3081	646.5637	51.3476	-464.1473	817.2711	37.3316	-373.931	866.554	38.1775	-462.0438	1091.5574	786.8703	-696.4825	1132.0647	685.9003	-695.6457	1015.7129	752.3987	-705.0901	1059.7065	651.9161	-697.5588	1182.3843	529.6807	-583.7284	1164.2304	539.4089	-694.6989	1194.8745	413.7763	-721.5809	1115.2097	398.834	-711.2164	1137.5389	292.2129	-710.8076	1239.2682	101.0477	-729.317	1274.5334	118.7934	-635.3556	1194.7541	43.8463	-669.8051	1354.6875	85.9236	-756.8237	1396.5051	110.118	-661.0283	1024.0826	1451.3612	-372.0529	945.2598	1429.625	-685.317	939.2687	1485.5046	-520.9493	887.7527	1158.9606	-505.6931	1061.9952	1377.9025	-544.3994	1085.465	1237.4877	-534.5859	869.2213	1392.9814	-416.9791
10	0.09	1047.3586	1042.2859	-377.8187	851.9028	1051.9806	-467.1058	841.3544	1045.8738	-511.611	843.8574	1050.0706	-561.8842	1015.6706	1038.5041	-671.3025	968.7658	714.0189	-363.0831	889.8264	727.6189	-345.3683	868.8373	620.8993	-364.9472	856.4194	500.4414	-498.1437	860.936	499.425	-381.6213	823.542	335.6552	-384.2271	795.3695	228.9571	-407.9065	743.8789	355.4605	-369.9104	719.6096	245.3534	-386.1148	690.9386	87.3408	-405.4725	731.1505	100.554	-499.3288	628.8845	53.7094	-464.1417	799.4165	37.3152	-373.8205	848.6481	38.1205	-462.0111	1090.2317	781.3186	-696.0939	1129.8605	679.9658	-694.799	1014.0676	747.4669	-705.6238	1057.2733	646.6016	-697.6818	1178.3643	524.0622	-582.5659	1162.1239	534.5659	-693.7822	1198.7499	411.7356	-721.6894	1119.6134	392.3923	-711.8689	1147.8695	286.9613	-711.6732	1261.8408	100.7002	-730.274	1295.1052	120.3216	-636.1297	1220.3867	40.2501	-671.5132	1378.5449	93.4195	-757.2995	1417.9305	119.9449	-661.1274	1024.6038	1448.2816	-373.9391	943.77	1425.6987	-686.5715	938.7137	1482.0062	-522.3119	887.3401	1155.4948	-506.4762	1061.6512	1374.2325	-546.0384	1085.0624	1233.6453	-535.6898	869.2633	1389.8427	-417.658
